<svg width="646" height="81" viewBox="0 0 646 81" fill="none" xmlns="http://www.w3.org/2000/svg">
<path d="M1.92002 75.2396C0.640025 75.2396 2.44565e-05 74.5996 2.44565e-05 73.3196C2.44565e-05 71.9596 0.800024 70.9196 2.40002 70.1996C4.08002 69.3996 6.08002 68.7996 8.40002 68.3996C10.8 67.9996 13.08 67.7196 15.24 67.5596C17.4 67.3996 19 67.2796 20.04 67.1996C20.84 64.2396 22.08 60.6396 23.76 56.3996C25.52 52.1596 27.56 47.6796 29.88 42.9596C32.28 38.2396 34.76 33.5996 37.32 29.0396C39.96 24.4796 42.6 20.3996 45.24 16.7996C47.88 13.1196 50.32 10.3196 52.56 8.39964C50.64 8.31964 48.68 8.63964 46.68 9.35964C44.68 9.99965 42.76 10.6796 40.92 11.3996C39.16 12.0396 37.6 12.3596 36.24 12.3596C35.52 12.3596 34.88 11.9996 34.32 11.2796C33.84 10.5596 33.6 9.91965 33.6 9.35964C33.6 8.31964 34.28 7.51964 35.64 6.95965C37 6.31965 38.68 5.83964 40.68 5.51964C42.76 5.19964 44.88 4.95964 47.04 4.79965C49.2 4.55964 51.12 4.35964 52.8 4.19965C54.56 3.95965 55.76 3.67964 56.4 3.35964C56.96 3.11965 57.56 2.51965 58.2 1.55965C58.84 0.519644 59.44 -0.000356197 60 -0.000356197C60.88 -0.000356197 61.84 0.399643 62.88 1.19964C63.92 1.99964 64.72 2.71964 65.28 3.35964C68.08 3.35964 70.96 3.39964 73.92 3.47964C76.88 3.55965 79.8 3.71965 82.68 3.95964C82.92 3.95964 83.24 4.03964 83.64 4.19965C84.12 4.27965 84.4 4.51965 84.48 4.91964C84.08 5.71964 82.84 6.27964 80.76 6.59964C78.76 6.83965 76.32 7.11965 73.44 7.43965C70.64 7.75964 67.76 8.39964 64.8 9.35964C61.92 10.2396 59.4 11.6796 57.24 13.6796C54.92 15.8396 52.44 18.5596 49.8 21.8396C47.24 25.1196 44.64 28.7196 42 32.6396C39.44 36.5596 36.96 40.5996 34.56 44.7596C32.24 48.8396 30.16 52.7996 28.32 56.6396C26.48 60.3996 25.08 63.7596 24.12 66.7196C27.64 66.7996 31.12 66.7996 34.56 66.7196C38 66.5596 41.44 66.4796 44.88 66.4796C45.04 66.4796 45.6 66.5196 46.56 66.5996C47.6 66.6796 48.12 66.9596 48.12 67.4396C48.2 67.9196 47.92 68.3196 47.28 68.6396C46.64 68.8796 45.92 69.0796 45.12 69.2396C44.4 69.3196 43.88 69.3996 43.56 69.4796C36.84 70.0396 30.04 70.7596 23.16 71.6396C16.36 72.4396 9.68002 73.5996 3.12002 75.1196C2.96002 75.1196 2.76002 75.1196 2.52002 75.1196C2.36002 75.1996 2.16002 75.2396 1.92002 75.2396ZM70.4672 79.6796C69.5072 79.6796 68.5072 79.4396 67.4672 78.9596C66.5072 78.5596 65.5472 77.9996 64.5872 77.2796C63.5472 76.3996 62.5472 75.1596 61.5872 73.5596C60.6272 71.9596 59.8272 70.2796 59.1872 68.5196L49.9472 78.5996C49.7072 78.8396 49.5472 78.9596 49.4672 78.9596C49.1472 78.9596 48.9872 78.7196 48.9872 78.2396C48.9872 77.5196 49.2272 76.9196 49.7072 76.4396L58.5872 66.3596C58.3472 65.3996 58.2272 64.4796 58.2272 63.5996C57.6672 63.1996 56.9072 62.7196 55.9472 62.1596C55.0672 61.5196 54.6272 60.4796 54.6272 59.0396C54.6272 57.3596 55.1472 55.7196 56.1872 54.1196C57.2272 52.5196 58.1072 51.7196 58.8272 51.7196C59.3872 51.7196 59.6672 52.1996 59.6672 53.1596C59.6672 53.4796 59.6672 54.3196 59.6672 55.6796C59.7472 57.0396 59.8272 58.4396 59.9072 59.8796C59.9872 61.2396 60.0672 62.1596 60.1472 62.6396C60.6272 62.9596 61.0272 63.1596 61.3472 63.2396C64.4672 59.6396 67.7472 55.9196 71.1872 52.0796C74.6272 48.2396 77.7072 44.9596 80.4272 42.2396C81.7872 40.1596 83.2672 38.3996 84.8672 36.9596C86.5472 35.5196 88.4672 34.7996 90.6272 34.7996C92.1472 34.7996 93.2272 35.0796 93.8672 35.6396C94.5072 36.1996 94.8272 36.8396 94.8272 37.5596C94.8272 38.2796 94.5072 38.9596 93.8672 39.5996C93.3072 40.1596 92.4672 40.4396 91.3472 40.4396C89.5872 40.3596 88.0672 40.4396 86.7872 40.6796C85.5072 40.8396 84.5872 41.3996 84.0272 42.3596C83.4672 43.3996 82.8272 45.1196 82.1072 47.5196C81.3872 49.9196 80.6672 52.6396 79.9472 55.6796C79.3072 58.7196 78.7472 61.6796 78.2672 64.5596C79.9472 64.2396 81.5472 63.8396 83.0672 63.3596C84.6672 62.7996 86.3872 61.8796 88.2272 60.5996C90.0672 59.3196 92.1872 57.4396 94.5872 54.9596C94.9872 54.4796 95.3872 54.2396 95.7872 54.2396C96.0272 54.2396 96.1472 54.3996 96.1472 54.7196C96.1472 54.8796 96.0672 55.1596 95.9072 55.5596C95.7472 55.9596 95.4272 56.4796 94.9472 57.1196C93.9872 58.3996 92.7872 59.6796 91.3472 60.9596C89.9872 62.1596 88.7872 63.0796 87.7472 63.7196C85.5872 64.9996 83.5472 65.7996 81.6272 66.1196C79.7072 66.3596 78.4672 66.5196 77.9072 66.5996C77.5872 68.2796 77.3072 69.6796 77.0672 70.7996C76.8272 71.8396 76.6672 72.5996 76.5872 73.0796C76.1872 75.3996 75.3872 77.0796 74.1872 78.1196C73.0672 79.1596 71.8272 79.6796 70.4672 79.6796ZM73.2272 64.5596C73.6272 62.7196 74.1472 60.2796 74.7872 57.2396C75.5072 54.1996 76.4672 51.1596 77.6672 48.1196C75.5872 50.4396 73.2672 52.9596 70.7072 55.6796C68.2272 58.3996 65.7872 61.1196 63.3872 63.8396C64.9072 64.1596 66.5472 64.3996 68.3072 64.5596C70.0672 64.6396 71.7072 64.6396 73.2272 64.5596ZM68.6672 73.9196C69.3072 73.9196 69.9472 73.4796 70.5872 72.5996C71.3072 71.6396 71.9872 69.8796 72.6272 67.3196C72.6272 67.0796 72.6672 66.9196 72.7472 66.8396C70.8272 66.7596 68.9472 66.6396 67.1072 66.4796C65.3472 66.2396 63.6672 65.8396 62.0672 65.2796L61.1072 66.3596C61.7472 67.6396 62.5072 68.9596 63.3872 70.3196C64.2672 71.5996 65.2672 72.5196 66.3872 73.0796C66.7872 73.3196 67.1872 73.5196 67.5872 73.6796C67.9872 73.8396 68.3472 73.9196 68.6672 73.9196ZM119.47 75.4796C117.87 75.4796 116.19 74.7996 114.43 73.4396C112.67 72.0796 111.79 70.5196 111.79 68.7596C111.79 67.1596 112.19 65.2796 112.99 63.1196C113.79 60.9596 114.71 58.9996 115.75 57.2396C113.27 59.8796 110.75 62.5196 108.19 65.1596C105.71 67.7996 103.27 70.4796 100.87 73.1996C100.07 74.1596 99.1103 74.6396 97.9903 74.6396C96.4703 74.6396 95.0303 73.8396 93.6703 72.2396C92.3903 70.6396 91.7503 69.1196 91.7503 67.6796C91.7503 67.2796 91.7903 66.9596 91.8703 66.7196C92.4303 65.1996 93.0703 63.7196 93.7903 62.2796C94.5903 60.7596 95.3903 59.3196 96.1903 57.9596C97.0703 56.4396 97.9903 54.9996 98.9503 53.6396C99.9903 52.1996 101.03 50.7596 102.07 49.3196C102.47 48.8396 102.83 48.3596 103.15 47.8796C103.55 47.3196 103.91 46.7596 104.23 46.1996C104.47 45.7996 104.59 45.3196 104.59 44.7596C104.59 44.1996 104.55 43.7196 104.47 43.3196C105.27 42.2796 106.35 41.2796 107.71 40.3196C109.07 39.2796 110.39 38.7596 111.67 38.7596C111.99 38.7596 112.51 38.8796 113.23 39.1196C114.03 39.2796 114.75 39.5196 115.39 39.8396C116.11 40.0796 116.47 40.3596 116.47 40.6796C116.47 40.9996 116.31 41.3196 115.99 41.6396C115.59 42.0396 115.15 42.4396 114.67 42.8396C114.19 43.2396 113.75 43.6796 113.35 44.1596C111.51 45.9996 109.75 47.9596 108.07 50.0396C106.39 52.0396 104.79 54.0796 103.27 56.1596C102.79 56.8796 102.03 57.9596 100.99 59.3996C100.03 60.7596 99.1503 62.1596 98.3503 63.5996C97.5503 65.0396 97.1503 66.1996 97.1503 67.0796C97.1503 67.8796 97.5103 68.2796 98.2303 68.2796C99.0303 68.2796 100.19 67.7596 101.71 66.7196C103.31 65.5996 105.03 64.1996 106.87 62.5196C108.71 60.7596 110.51 58.9596 112.27 57.1196C114.11 55.2796 115.71 53.5996 117.07 52.0796C118.51 50.5596 119.51 49.4396 120.07 48.7196C121.75 46.7196 123.39 44.4796 124.99 41.9996C125.63 41.0396 126.39 40.1996 127.27 39.4796C128.23 38.6796 129.27 38.2796 130.39 38.2796C131.03 38.2796 131.83 38.3596 132.79 38.5196C133.83 38.5996 134.35 39.0796 134.35 39.9596C134.35 40.2796 134.23 40.5996 133.99 40.9196C133.83 41.2396 133.63 41.5196 133.39 41.7596C130.75 44.4796 128.23 47.3596 125.83 50.3996C123.51 53.3596 121.55 56.5996 119.95 60.1196C119.39 61.3196 118.83 62.9196 118.27 64.9196C117.71 66.8396 117.43 68.4796 117.43 69.8396C117.43 71.1996 117.95 71.8796 118.99 71.8796C119.71 71.8796 120.43 71.6396 121.15 71.1596C122.03 70.6796 123.23 69.7196 124.75 68.2796C126.27 66.7596 127.87 65.0796 129.55 63.2396C131.31 61.3196 132.95 59.5196 134.47 57.8396C135.99 56.0796 137.15 54.7196 137.95 53.7596C138.11 53.5996 138.27 53.4796 138.43 53.3996C138.59 53.2396 138.75 53.1596 138.91 53.1596C139.47 53.1596 139.75 53.4796 139.75 54.1196C139.75 54.4396 139.67 54.6796 139.51 54.8396C139.35 54.9996 139.19 55.1996 139.03 55.4396C136.55 58.3196 134.07 61.2396 131.59 64.1996C129.19 67.1596 126.75 70.0796 124.27 72.9596C123.71 73.6796 123.03 74.2796 122.23 74.7596C121.43 75.2396 120.51 75.4796 119.47 75.4796ZM148.095 76.0796C146.815 76.0796 145.455 75.4396 144.015 74.1596C142.655 72.7996 141.975 71.4796 141.975 70.1996C141.975 68.5996 142.535 66.7996 143.655 64.7996C144.775 62.7196 146.095 60.7196 147.615 58.7996C149.135 56.8796 150.455 55.2396 151.575 53.8796C152.695 52.4396 153.255 51.4796 153.255 50.9996V50.7596C152.535 50.1196 151.855 49.5196 151.215 48.9596C150.575 48.3196 149.695 47.9996 148.575 47.9996C147.775 47.9996 146.735 48.4796 145.455 49.4396C144.255 50.3996 143.015 51.5196 141.735 52.7996C140.455 54.0796 139.295 55.2796 138.255 56.3996C137.215 57.5196 136.455 58.2796 135.975 58.6796C135.655 58.9996 135.335 59.1996 135.015 59.2796C134.775 59.3596 134.575 59.3996 134.415 59.3996C134.095 59.3996 133.935 59.2396 133.935 58.9196C133.935 58.5996 134.095 58.2796 134.415 57.9596C135.695 56.2796 137.175 54.5596 138.855 52.7996C140.535 51.0396 142.055 49.4396 143.415 47.9996C144.775 46.4796 145.575 45.3996 145.815 44.7596C146.455 42.9196 147.095 41.2796 147.735 39.8396C148.455 38.3996 149.575 37.0396 151.095 35.7596C151.735 35.1196 152.495 34.5996 153.375 34.1996C154.255 33.7996 155.135 33.5996 156.015 33.5996C156.815 33.5996 157.455 33.8396 157.935 34.3196C158.495 34.7196 158.775 35.3596 158.775 36.2396C158.775 37.1996 158.335 38.1596 157.455 39.1196C156.655 40.0796 155.695 40.9996 154.575 41.8796C153.455 42.6796 152.455 43.3996 151.575 44.0396C150.775 44.6796 150.415 45.1996 150.495 45.5996C150.975 45.9196 151.895 46.3196 153.255 46.7996C154.695 47.2796 155.695 47.5196 156.255 47.5196C156.895 47.5196 157.495 47.3996 158.055 47.1596C158.615 46.9196 159.175 46.7996 159.735 46.7996C160.535 46.7996 161.335 47.0396 162.135 47.5196C162.935 47.9996 163.335 48.7196 163.335 49.6796C163.335 50.4796 163.015 51.2396 162.375 51.9596C161.815 52.5996 161.215 53.1596 160.575 53.6396C159.615 54.3596 158.335 55.4396 156.735 56.8796C155.135 58.3196 153.495 59.9196 151.815 61.6796C150.215 63.4396 148.815 65.1996 147.615 66.9596C146.495 68.6396 145.935 70.1196 145.935 71.3996C145.935 71.7196 146.015 72.0396 146.175 72.3596C146.255 72.4396 146.415 72.4796 146.655 72.4796C148.255 72.4796 150.055 71.7596 152.055 70.3196C154.055 68.8796 156.055 67.1196 158.055 65.0396C160.135 62.9596 162.055 60.9196 163.815 58.9196C165.655 56.8396 167.215 55.2396 168.495 54.1196C168.655 53.9596 168.855 53.7996 169.095 53.6396C169.335 53.4796 169.575 53.3996 169.815 53.3996C170.215 53.3996 170.415 53.6796 170.415 54.2396C170.415 54.5596 169.855 55.3596 168.735 56.6396C167.695 57.9196 166.335 59.4396 164.655 61.1996C162.975 62.9596 161.215 64.7596 159.375 66.5996C157.615 68.4396 155.975 70.0796 154.455 71.5196C152.935 72.8796 151.855 73.8396 151.215 74.3996C150.335 75.1196 149.695 75.5596 149.295 75.7196C148.895 75.9596 148.495 76.0796 148.095 76.0796ZM192.478 75.4796C190.878 75.4796 189.198 74.7996 187.438 73.4396C185.678 72.0796 184.798 70.5196 184.798 68.7596C184.798 67.1596 185.198 65.2796 185.998 63.1196C186.798 60.9596 187.718 58.9996 188.758 57.2396C186.278 59.8796 183.758 62.5196 181.198 65.1596C178.718 67.7996 176.278 70.4796 173.878 73.1996C173.078 74.1596 172.118 74.6396 170.998 74.6396C169.478 74.6396 168.038 73.8396 166.678 72.2396C165.398 70.6396 164.758 69.1196 164.758 67.6796C164.758 67.2796 164.798 66.9596 164.878 66.7196C165.438 65.1996 166.078 63.7196 166.798 62.2796C167.598 60.7596 168.398 59.3196 169.198 57.9596C170.078 56.4396 170.998 54.9996 171.958 53.6396C172.998 52.1996 174.038 50.7596 175.078 49.3196C175.478 48.8396 175.838 48.3596 176.158 47.8796C176.558 47.3196 176.918 46.7596 177.238 46.1996C177.478 45.7996 177.598 45.3196 177.598 44.7596C177.598 44.1996 177.558 43.7196 177.478 43.3196C178.278 42.2796 179.358 41.2796 180.718 40.3196C182.078 39.2796 183.398 38.7596 184.678 38.7596C184.998 38.7596 185.518 38.8796 186.238 39.1196C187.038 39.2796 187.758 39.5196 188.398 39.8396C189.118 40.0796 189.478 40.3596 189.478 40.6796C189.478 40.9996 189.318 41.3196 188.998 41.6396C188.598 42.0396 188.158 42.4396 187.678 42.8396C187.198 43.2396 186.758 43.6796 186.358 44.1596C184.518 45.9996 182.758 47.9596 181.078 50.0396C179.398 52.0396 177.798 54.0796 176.278 56.1596C175.798 56.8796 175.038 57.9596 173.998 59.3996C173.038 60.7596 172.158 62.1596 171.358 63.5996C170.558 65.0396 170.158 66.1996 170.158 67.0796C170.158 67.8796 170.518 68.2796 171.238 68.2796C172.038 68.2796 173.198 67.7596 174.718 66.7196C176.318 65.5996 178.038 64.1996 179.878 62.5196C181.718 60.7596 183.518 58.9596 185.278 57.1196C187.118 55.2796 188.718 53.5996 190.078 52.0796C191.518 50.5596 192.518 49.4396 193.078 48.7196C194.758 46.7196 196.398 44.4796 197.998 41.9996C198.638 41.0396 199.398 40.1996 200.278 39.4796C201.238 38.6796 202.278 38.2796 203.398 38.2796C204.038 38.2796 204.838 38.3596 205.798 38.5196C206.838 38.5996 207.358 39.0796 207.358 39.9596C207.358 40.2796 207.238 40.5996 206.998 40.9196C206.838 41.2396 206.638 41.5196 206.398 41.7596C203.758 44.4796 201.238 47.3596 198.838 50.3996C196.518 53.3596 194.558 56.5996 192.958 60.1196C192.398 61.3196 191.838 62.9196 191.278 64.9196C190.718 66.8396 190.438 68.4796 190.438 69.8396C190.438 71.1996 190.958 71.8796 191.998 71.8796C192.718 71.8796 193.438 71.6396 194.158 71.1596C195.038 70.6796 196.238 69.7196 197.758 68.2796C199.278 66.7596 200.878 65.0796 202.558 63.2396C204.318 61.3196 205.958 59.5196 207.478 57.8396C208.998 56.0796 210.158 54.7196 210.958 53.7596C211.118 53.5996 211.278 53.4796 211.438 53.3996C211.598 53.2396 211.758 53.1596 211.918 53.1596C212.478 53.1596 212.758 53.4796 212.758 54.1196C212.758 54.4396 212.678 54.6796 212.518 54.8396C212.358 54.9996 212.198 55.1996 212.038 55.4396C209.558 58.3196 207.078 61.2396 204.598 64.1996C202.198 67.1596 199.758 70.0796 197.278 72.9596C196.718 73.6796 196.038 74.2796 195.238 74.7596C194.438 75.2396 193.518 75.4796 192.478 75.4796ZM302.828 80.2796C301.548 80.2796 300.628 79.7596 300.068 78.7196C299.588 77.6796 299.348 76.6396 299.348 75.5996C299.348 74.1596 299.748 72.5596 300.548 70.7996C301.428 69.0396 302.388 67.2796 303.428 65.5196C304.548 63.7596 305.388 62.1996 305.948 60.8396C303.148 62.7596 299.748 64.6796 295.748 66.5996C291.828 68.5196 287.628 70.2796 283.148 71.8796C278.748 73.3996 274.428 74.6396 270.188 75.5996C265.948 76.5596 262.108 77.0396 258.668 77.0396C253.308 77.0396 249.028 75.7596 245.828 73.1996C242.628 70.6396 241.028 66.5196 241.028 60.8396C241.028 56.1996 242.108 51.5196 244.268 46.7996C246.428 41.9996 249.348 37.3596 253.028 32.8796C256.788 28.3196 260.988 24.1196 265.628 20.2796C270.348 16.3596 275.308 12.9196 280.508 9.95964C285.708 6.99964 290.828 4.67965 295.868 2.99965C300.988 1.31965 305.748 0.479645 310.148 0.479645C312.308 0.479645 314.228 1.07964 315.908 2.27964C317.668 3.39964 319.028 4.87964 319.988 6.71964C321.028 8.55964 321.548 10.5196 321.548 12.5996C321.548 14.3596 320.988 16.1996 319.868 18.1196C318.748 20.0396 317.308 21.6796 315.548 23.0396C313.868 24.3196 312.108 24.9596 310.268 24.9596C309.948 24.9596 309.628 24.8796 309.308 24.7196C309.068 24.5596 308.948 24.3196 308.948 23.9996C308.948 23.5996 309.348 22.9596 310.148 22.0796C310.948 21.1996 311.868 20.1596 312.908 18.9596C313.948 17.7596 314.868 16.4396 315.668 14.9996C316.468 13.4796 316.868 11.8796 316.868 10.1996C316.868 8.27964 316.148 6.95964 314.708 6.23964C313.348 5.51964 311.828 5.15964 310.148 5.15964C306.868 5.15964 302.988 6.07964 298.508 7.91964C294.028 9.67964 289.348 12.1196 284.468 15.2396C279.588 18.3596 274.828 21.8796 270.188 25.7996C265.548 29.7196 261.308 33.8396 257.468 38.1596C253.708 42.3996 250.708 46.5996 248.468 50.7596C246.228 54.8396 245.108 58.6396 245.108 62.1596C245.108 64.7996 245.948 66.7996 247.628 68.1596C249.308 69.5196 251.308 70.4396 253.628 70.9196C256.028 71.3996 258.268 71.6396 260.348 71.6396C263.068 71.6396 266.508 71.2396 270.668 70.4396C274.908 69.6396 279.388 68.5196 284.108 67.0796C288.828 65.5596 293.348 63.7996 297.668 61.7996C302.068 59.7196 305.788 57.3996 308.828 54.8396C311.948 52.2796 313.948 49.5196 314.828 46.5596C314.108 46.3196 312.988 46.1996 311.468 46.1996C309.708 46.1996 307.548 46.3596 304.988 46.6796C302.508 46.9196 299.988 47.2396 297.428 47.6396C294.868 47.9596 292.508 48.3196 290.348 48.7196C288.188 49.0396 286.548 49.2796 285.428 49.4396C281.508 50.3996 278.148 51.3996 275.348 52.4396C272.628 53.4796 270.588 53.9996 269.228 53.9996C267.708 53.9996 266.948 53.1196 266.948 51.3596C266.948 49.9196 267.948 48.7196 269.948 47.7596C272.028 46.7196 274.748 45.8796 278.108 45.2396C281.468 44.5196 285.148 43.9596 289.148 43.5596C293.148 43.0796 297.108 42.7596 301.028 42.5996C305.028 42.3596 308.628 42.1996 311.828 42.1196C315.108 42.0396 317.668 41.9996 319.508 41.9996C320.868 41.9996 322.628 42.0396 324.788 42.1196C327.028 42.1196 329.268 42.2396 331.508 42.4796C333.748 42.6396 335.628 42.9196 337.148 43.3196C338.668 43.7196 339.428 44.2796 339.428 44.9996C339.428 45.4796 339.068 45.7996 338.348 45.9596C337.708 46.1196 336.908 46.1996 335.948 46.1996C334.908 46.1996 333.868 46.1596 332.828 46.0796C331.788 45.9196 331.068 45.8396 330.668 45.8396C328.588 45.8396 326.348 46.6796 323.948 48.3596C321.628 49.9596 319.308 52.0796 316.988 54.7196C314.748 57.2796 312.668 60.0396 310.748 62.9996C308.908 65.9596 307.428 68.7996 306.308 71.5196C305.188 74.2396 304.628 76.5196 304.628 78.3596C304.628 78.9996 304.668 79.4796 304.748 79.7996C304.428 79.8796 304.108 79.9596 303.788 80.0396C303.468 80.1996 303.148 80.2796 302.828 80.2796ZM337.988 75.9596C335.668 75.9596 333.948 75.0396 332.828 73.1996C331.708 71.2796 331.148 69.3196 331.148 67.3196C331.148 64.5996 331.868 61.6796 333.308 58.5596C334.748 55.3596 336.468 52.3196 338.468 49.4396C340.548 46.5596 342.388 44.1996 343.988 42.3596C344.388 41.8796 344.908 41.6396 345.548 41.6396C346.268 41.6396 346.988 41.9196 347.708 42.4796C349.388 41.2796 351.308 40.1996 353.468 39.2396C355.708 38.2796 357.868 37.7996 359.948 37.7996C363.548 37.7996 365.348 39.6396 365.348 43.3196C365.348 46.8396 364.468 50.0796 362.708 53.0396C361.028 55.9996 359.148 58.8796 357.068 61.6796C356.508 62.3996 355.948 63.0796 355.388 63.7196C354.908 64.3596 354.348 64.9996 353.708 65.6396C357.228 64.6796 360.308 63.0796 362.948 60.8396C365.588 58.5996 368.188 56.2796 370.748 53.8796C371.068 53.5596 371.348 53.3196 371.588 53.1596C371.908 52.9196 372.308 52.7996 372.788 52.7996C373.188 52.7996 373.388 53.0796 373.388 53.6396C373.388 53.7196 373.268 53.9196 373.028 54.2396C372.788 54.5596 372.628 54.7996 372.548 54.9596C369.908 58.1596 366.628 61.1596 362.708 63.9596C358.868 66.6796 354.828 68.3596 350.588 68.9996C349.068 70.5196 347.148 72.0796 344.828 73.6796C342.508 75.1996 340.228 75.9596 337.988 75.9596ZM347.348 66.4796C347.668 66.4796 347.948 66.4796 348.188 66.4796C348.508 66.4796 348.828 66.4396 349.148 66.3596C350.748 64.4396 352.388 62.1596 354.068 59.5196C355.828 56.8796 357.308 54.1596 358.508 51.3596C359.708 48.4796 360.308 45.8796 360.308 43.5596C360.308 42.1196 359.628 41.3996 358.268 41.3996C356.908 41.3996 355.348 41.7996 353.588 42.5996C351.828 43.3996 350.348 44.2396 349.148 45.1196V45.4796C349.148 46.2796 348.508 47.4396 347.228 48.9596C346.028 50.3996 344.708 51.8796 343.268 53.3996C341.908 54.9196 340.908 56.1996 340.268 57.2396C340.028 59.8796 340.548 62.0796 341.828 63.8396C343.108 65.5996 344.948 66.4796 347.348 66.4796ZM338.108 73.9196C339.628 73.9196 341.108 73.3596 342.548 72.2396C344.068 71.1196 345.348 70.0796 346.388 69.1196C344.468 68.9596 342.708 68.3196 341.108 67.1996C339.588 65.9996 338.188 64.6796 336.908 63.2396C336.668 63.7196 336.348 64.6396 335.948 65.9996C335.548 67.3596 335.348 68.7196 335.348 70.0796C335.348 71.1196 335.548 72.0396 335.948 72.8396C336.348 73.5596 337.068 73.9196 338.108 73.9196ZM388.384 75.7196C387.664 75.7196 386.824 75.3996 385.864 74.7596C384.984 74.1996 384.184 73.5196 383.464 72.7196C382.744 71.8396 382.384 71.0396 382.384 70.3196C382.384 69.3596 382.704 68.1196 383.344 66.5996C383.984 65.0796 384.784 63.4796 385.744 61.7996C386.704 60.0396 387.624 58.4396 388.504 56.9996C389.464 55.5596 390.184 54.4396 390.664 53.6396C390.024 54.4396 389.024 55.6796 387.664 57.3596C386.304 58.9596 384.784 60.7596 383.104 62.7596C381.504 64.6796 379.824 66.5596 378.064 68.3996C376.384 70.1596 374.824 71.6396 373.384 72.8396C371.944 73.9596 370.784 74.5196 369.904 74.5196C369.344 74.5196 368.384 73.9996 367.024 72.9596C365.744 71.8396 365.104 70.1596 365.104 67.9196C365.104 66.0796 365.664 63.8396 366.784 61.1996C367.984 58.5596 369.544 55.8396 371.464 53.0396C373.384 50.1596 375.464 47.4796 377.704 44.9996C380.024 42.5196 382.304 40.5196 384.544 38.9996C386.864 37.4796 388.944 36.7196 390.784 36.7196C392.224 36.7196 393.624 37.1996 394.984 38.1596C396.344 39.0396 397.144 40.6796 397.384 43.0796C399.144 40.7596 400.904 38.5196 402.664 36.3596C404.504 34.1196 407.064 31.1996 410.344 27.5996C410.744 27.1196 411.504 26.2796 412.624 25.0796C413.744 23.7996 415.024 22.4396 416.464 20.9996C417.904 19.4796 419.304 18.1196 420.664 16.9196C422.104 15.6396 423.304 14.8396 424.264 14.5196C424.664 14.3596 425.464 14.5996 426.664 15.2396C427.864 15.7996 428.464 16.5196 428.464 17.3996C428.464 17.8796 428.264 18.3196 427.864 18.7196C427.384 19.2796 426.544 20.1196 425.344 21.2396C424.224 22.3596 422.944 23.5596 421.504 24.8396C420.064 26.1196 418.704 27.3196 417.424 28.4396C416.224 29.4796 415.384 30.3196 414.904 30.9596C408.184 38.0796 402.424 44.8796 397.624 51.3596C392.824 57.8396 389.624 63.5596 388.024 68.5196C387.624 69.7196 387.424 70.5596 387.424 71.0396C387.424 71.7596 387.624 72.1196 388.024 72.1196C388.344 72.1196 388.744 71.9596 389.224 71.6396C389.704 71.2396 390.264 70.7996 390.904 70.3196C392.184 69.2796 393.624 67.9996 395.224 66.4796C396.904 64.9596 398.544 63.3996 400.144 61.7996C401.744 60.1996 403.144 58.7596 404.344 57.4796C405.624 56.1196 406.504 55.1596 406.984 54.5996C407.144 54.4396 407.304 54.2796 407.464 54.1196C407.704 53.8796 407.944 53.7596 408.184 53.7596C408.744 53.7596 409.024 54.0396 409.024 54.5996C409.024 54.9196 408.384 55.8796 407.104 57.4796C405.824 58.9996 404.224 60.7996 402.304 62.8796C400.384 64.8796 398.424 66.8796 396.424 68.8796C394.424 70.7996 392.664 72.4396 391.144 73.7996C389.704 75.0796 388.784 75.7196 388.384 75.7196ZM371.104 70.3196C371.424 70.3196 371.784 70.1196 372.184 69.7196C376.264 66.1996 380.144 62.3596 383.824 58.1996C387.584 54.0396 391.104 49.7996 394.384 45.4796C393.984 44.6796 393.424 44.0396 392.704 43.5596C392.064 42.9996 391.304 42.7196 390.424 42.7196C388.824 42.7196 387.064 43.3996 385.144 44.7596C383.304 46.1196 381.584 47.6796 379.984 49.4396C378.384 51.1196 377.104 52.5196 376.144 53.6396C374.704 55.3996 373.304 57.6796 371.944 60.4796C370.664 63.1996 370.024 65.7196 370.024 68.0396C370.024 69.5596 370.384 70.3196 371.104 70.3196ZM426.023 75.7196C425.303 75.7196 424.463 75.3996 423.503 74.7596C422.623 74.1196 421.863 73.3996 421.223 72.5996C420.583 71.7196 420.263 70.9196 420.263 70.1996C420.263 68.9996 420.703 67.3996 421.583 65.3996C422.463 63.3196 423.463 61.2796 424.583 59.2796C425.783 57.2796 426.703 55.7996 427.343 54.8396C426.223 55.7996 424.783 57.3596 423.023 59.5196C421.343 61.5996 419.503 63.8396 417.503 66.2396C415.583 68.5596 413.703 70.5596 411.863 72.2396C410.103 73.9196 408.583 74.7596 407.303 74.7596C405.543 74.7596 404.103 74.1596 402.983 72.9596C401.943 71.6796 401.423 70.1596 401.423 68.3996C401.423 65.9996 402.103 63.4396 403.463 60.7196C404.823 57.9196 406.583 55.2396 408.743 52.6796C410.983 50.0396 413.383 47.6396 415.943 45.4796C418.583 43.3196 421.143 41.5996 423.623 40.3196C426.183 39.0396 428.463 38.3996 430.463 38.3996C432.623 38.3996 434.383 38.9196 435.743 39.9596C437.103 40.9196 437.783 42.3996 437.783 44.3996C437.783 44.7196 437.703 45.3196 437.543 46.1996C437.463 47.0796 437.183 47.5196 436.703 47.5196C436.463 47.5196 436.063 47.1596 435.503 46.4396C435.023 45.7196 434.343 44.9996 433.463 44.2796C432.583 43.5596 431.463 43.1996 430.103 43.1996C427.863 43.1996 425.503 44.0396 423.023 45.7196C420.623 47.3196 418.303 49.3996 416.063 51.9596C413.823 54.4396 411.863 56.9996 410.183 59.6396C408.503 62.2796 407.223 64.5596 406.343 66.4796C406.103 67.0396 405.863 67.6396 405.623 68.2796C405.463 68.9196 405.383 69.5596 405.383 70.1996C405.383 70.9196 405.583 71.2796 405.983 71.2796C406.383 71.2796 407.223 70.8396 408.503 69.9596C409.863 69.0796 410.823 68.4396 411.383 68.0396C414.183 66.0396 416.823 63.7596 419.303 61.1996C421.863 58.6396 424.143 55.9996 426.143 53.2796C426.783 52.3996 427.383 51.5196 427.943 50.6396C428.503 49.7596 429.063 48.9196 429.623 48.1196C430.023 47.5596 430.423 47.2796 430.823 47.2796C431.703 47.2796 432.543 47.8796 433.343 49.0796C434.223 50.2796 434.663 51.3196 434.663 52.1996C434.663 52.5996 434.583 52.8396 434.423 52.9196C434.343 52.9996 434.103 53.2396 433.703 53.6396C432.503 54.8396 431.303 56.5196 430.103 58.6796C428.983 60.8396 427.983 63.0396 427.103 65.2796C426.303 67.4396 425.703 69.2796 425.303 70.7996C425.223 71.0396 425.143 71.3596 425.063 71.7596C425.063 72.0796 425.263 72.1996 425.663 72.1196C426.463 71.8796 427.743 70.9996 429.503 69.4796C431.343 67.8796 433.303 66.0796 435.383 64.0796C437.543 61.9996 439.463 60.0796 441.143 58.3196C442.903 56.5596 444.063 55.3196 444.623 54.5996C444.783 54.4396 444.943 54.2796 445.103 54.1196C445.343 53.8796 445.583 53.7596 445.823 53.7596C446.383 53.7596 446.663 54.0396 446.663 54.5996C446.663 54.9196 446.023 55.8796 444.743 57.4796C443.463 58.9996 441.863 60.7996 439.943 62.8796C438.023 64.8796 436.063 66.8796 434.063 68.8796C432.063 70.7996 430.303 72.4396 428.783 73.7996C427.343 75.0796 426.423 75.7196 426.023 75.7196ZM466.638 76.5596C462.958 76.5596 460.398 75.3596 458.958 72.9596C457.518 70.5596 456.798 67.6396 456.798 64.1996C456.798 62.2796 456.958 60.3196 457.278 58.3196C457.598 56.2396 457.998 54.1996 458.478 52.1996C457.518 52.7596 456.358 53.6396 454.998 54.8396C453.638 56.0396 452.078 57.5596 450.318 59.3996C448.958 62.1196 447.758 64.7596 446.718 67.3196C445.678 69.7996 444.518 72.0796 443.238 74.1596C442.998 74.4796 442.678 74.6796 442.278 74.7596C441.878 74.8396 441.478 74.8796 441.078 74.8796C439.398 74.8796 438.558 74.1196 438.558 72.5996C438.558 70.8396 439.438 69.1596 441.198 67.5596L449.838 52.1996C449.118 52.7596 448.438 53.3596 447.798 53.9996C447.158 54.6396 446.438 55.3196 445.638 56.0396C445.318 56.3596 444.958 56.5196 444.558 56.5196C444.238 56.5196 444.078 56.3596 444.078 56.0396C444.078 55.7196 444.278 55.2796 444.678 54.7196C446.518 52.3996 448.758 49.8396 451.398 47.0396C454.118 44.1596 457.078 40.2796 460.278 35.3996C461.318 33.7996 462.798 31.7996 464.718 29.3996C466.638 26.9996 468.718 24.4396 470.958 21.7196C473.278 18.9996 475.598 16.4396 477.918 14.0396C480.238 11.5596 482.278 9.47965 484.038 7.79964C484.918 7.07964 485.678 6.47964 486.318 5.99965C486.958 5.51965 487.438 5.23965 487.758 5.15964C488.478 5.15964 489.158 5.55964 489.798 6.35965C490.438 7.15965 490.798 7.99965 490.878 8.87964C490.878 9.75965 490.558 10.3596 489.918 10.6796C488.958 11.4796 488.038 12.1996 487.158 12.8396C486.358 13.4796 485.518 14.1996 484.638 14.9996C482.478 16.9196 480.078 19.2796 477.438 22.0796C474.798 24.8796 472.118 27.8796 469.398 31.0796C466.758 34.2796 464.198 37.5196 461.718 40.7996C459.318 43.9996 457.198 47.0396 455.358 49.9196C455.518 50.0796 455.678 50.1596 455.838 50.1596C456.078 50.1596 456.358 50.0396 456.678 49.7996C457.078 49.4796 457.558 49.0796 458.118 48.5996C460.918 46.1996 463.958 43.7596 467.238 41.2796C470.518 38.7196 473.678 36.3996 476.718 34.3196C477.598 33.7596 478.478 33.2796 479.358 32.8796C480.318 32.3996 481.318 32.1596 482.358 32.1596C482.998 32.1596 483.598 32.2796 484.158 32.5196C484.798 32.6796 485.278 32.9996 485.598 33.4796C486.398 33.7196 487.158 34.1196 487.878 34.6796C488.678 35.2396 489.078 35.9996 489.078 36.9596C489.078 38.1596 488.478 39.3196 487.278 40.4396C486.078 41.4796 485.038 42.3196 484.158 42.9596C481.438 44.7196 478.238 46.2396 474.558 47.5196C470.958 48.7196 467.438 49.6396 463.998 50.2796C463.438 52.7596 462.918 55.3196 462.438 57.9596C462.038 60.5196 461.838 62.8796 461.838 65.0396C461.838 67.2796 462.118 69.1196 462.678 70.5596C463.238 71.9996 464.278 72.7196 465.798 72.7196C466.678 72.7196 467.758 72.3196 469.038 71.5196C470.398 70.6396 471.758 69.6396 473.118 68.5196C474.558 67.3196 475.838 66.1596 476.958 65.0396C478.158 63.9196 479.078 63.0796 479.718 62.5196C480.438 61.8796 481.478 60.9196 482.838 59.6396C484.198 58.3596 485.518 57.0796 486.798 55.7996C488.158 54.5196 489.078 53.5996 489.558 53.0396C489.638 52.9596 489.758 52.9196 489.918 52.9196C490.318 52.9196 490.518 53.1996 490.518 53.7596C490.518 54.3996 490.038 55.2396 489.078 56.2796L487.038 58.5596C483.758 62.2396 480.518 65.7596 477.318 69.1196C474.198 72.3996 471.438 74.6796 469.038 75.9596C468.238 76.3596 467.438 76.5596 466.638 76.5596ZM464.838 47.1596C465.718 46.9996 467.078 46.6396 468.918 46.0796C470.758 45.5196 472.638 44.7996 474.558 43.9196C476.558 43.0396 478.278 42.1196 479.718 41.1596C481.238 40.1196 482.118 39.0796 482.358 38.0396C482.118 37.4796 481.678 37.1996 481.038 37.1996C480.478 37.1996 479.438 37.6396 477.918 38.5196C476.398 39.3196 474.758 40.3196 472.998 41.5196C471.238 42.6396 469.598 43.7596 468.078 44.8796C466.558 45.9196 465.478 46.6796 464.838 47.1596ZM507.117 75.7196C506.397 75.7196 505.557 75.3996 504.597 74.7596C503.717 74.1196 502.957 73.3996 502.317 72.5996C501.677 71.7196 501.357 70.9196 501.357 70.1996C501.357 68.9996 501.797 67.3996 502.677 65.3996C503.557 63.3196 504.557 61.2796 505.677 59.2796C506.877 57.2796 507.797 55.7996 508.437 54.8396C507.317 55.7996 505.877 57.3596 504.117 59.5196C502.437 61.5996 500.597 63.8396 498.597 66.2396C496.677 68.5596 494.797 70.5596 492.957 72.2396C491.197 73.9196 489.677 74.7596 488.397 74.7596C486.637 74.7596 485.197 74.1596 484.077 72.9596C483.037 71.6796 482.517 70.1596 482.517 68.3996C482.517 65.9996 483.197 63.4396 484.557 60.7196C485.917 57.9196 487.677 55.2396 489.837 52.6796C492.077 50.0396 494.477 47.6396 497.037 45.4796C499.677 43.3196 502.237 41.5996 504.717 40.3196C507.277 39.0396 509.557 38.3996 511.557 38.3996C513.717 38.3996 515.477 38.9196 516.837 39.9596C518.197 40.9196 518.877 42.3996 518.877 44.3996C518.877 44.7196 518.797 45.3196 518.637 46.1996C518.557 47.0796 518.277 47.5196 517.797 47.5196C517.557 47.5196 517.157 47.1596 516.597 46.4396C516.117 45.7196 515.437 44.9996 514.557 44.2796C513.677 43.5596 512.557 43.1996 511.197 43.1996C508.957 43.1996 506.597 44.0396 504.117 45.7196C501.717 47.3196 499.397 49.3996 497.157 51.9596C494.917 54.4396 492.957 56.9996 491.277 59.6396C489.597 62.2796 488.317 64.5596 487.437 66.4796C487.197 67.0396 486.957 67.6396 486.717 68.2796C486.557 68.9196 486.477 69.5596 486.477 70.1996C486.477 70.9196 486.677 71.2796 487.077 71.2796C487.477 71.2796 488.317 70.8396 489.597 69.9596C490.957 69.0796 491.917 68.4396 492.477 68.0396C495.277 66.0396 497.917 63.7596 500.397 61.1996C502.957 58.6396 505.237 55.9996 507.237 53.2796C507.877 52.3996 508.477 51.5196 509.037 50.6396C509.597 49.7596 510.157 48.9196 510.717 48.1196C511.117 47.5596 511.517 47.2796 511.917 47.2796C512.797 47.2796 513.637 47.8796 514.437 49.0796C515.317 50.2796 515.757 51.3196 515.757 52.1996C515.757 52.5996 515.677 52.8396 515.517 52.9196C515.437 52.9996 515.197 53.2396 514.797 53.6396C513.597 54.8396 512.397 56.5196 511.197 58.6796C510.077 60.8396 509.077 63.0396 508.197 65.2796C507.397 67.4396 506.797 69.2796 506.397 70.7996C506.317 71.0396 506.237 71.3596 506.157 71.7596C506.157 72.0796 506.357 72.1996 506.757 72.1196C507.557 71.8796 508.837 70.9996 510.597 69.4796C512.437 67.8796 514.397 66.0796 516.477 64.0796C518.637 61.9996 520.557 60.0796 522.237 58.3196C523.997 56.5596 525.157 55.3196 525.717 54.5996C525.877 54.4396 526.037 54.2796 526.197 54.1196C526.437 53.8796 526.677 53.7596 526.917 53.7596C527.477 53.7596 527.757 54.0396 527.757 54.5996C527.757 54.9196 527.117 55.8796 525.837 57.4796C524.557 58.9996 522.957 60.7996 521.037 62.8796C519.117 64.8796 517.157 66.8796 515.157 68.8796C513.157 70.7996 511.397 72.4396 509.877 73.7996C508.437 75.0796 507.517 75.7196 507.117 75.7196ZM547.252 75.9596C546.052 75.9596 544.692 75.5996 543.172 74.8796C541.732 74.2396 541.012 73.1996 541.012 71.7596C541.012 70.0796 541.652 68.0796 542.932 65.7596C544.212 63.4396 545.732 61.0396 547.492 58.5596C549.252 55.9996 550.932 53.5596 552.532 51.2396C554.212 48.9196 555.412 46.9596 556.132 45.3596C555.652 45.5996 554.852 46.0796 553.732 46.7996C552.692 47.4396 551.652 48.1196 550.612 48.8396C549.572 49.4796 548.812 49.9996 548.332 50.3996C544.892 52.9596 541.892 55.5996 539.332 58.3196C536.852 61.0396 534.332 64.1596 531.772 67.6796C531.132 68.6396 530.452 69.6396 529.732 70.6796C529.092 71.7196 528.412 72.7196 527.692 73.6796C527.372 74.0796 526.812 74.4796 526.012 74.8796C525.292 75.2796 524.612 75.4796 523.972 75.4796C522.932 75.4796 522.412 74.9196 522.412 73.7996C522.412 72.8396 522.892 71.3596 523.852 69.3596C524.892 67.3596 526.172 65.0796 527.692 62.5196C529.212 59.9596 530.812 57.4396 532.492 54.9596C534.172 52.3996 535.692 50.1196 537.052 48.1196C538.412 46.0396 539.372 44.5596 539.932 43.6796C539.772 43.9196 539.332 44.3596 538.612 44.9996C537.892 45.5596 537.172 46.1596 536.452 46.7996C535.812 47.3596 535.332 47.7596 535.012 47.9996C533.492 49.4396 532.012 50.9196 530.572 52.4396C529.132 53.9596 527.692 55.4796 526.252 56.9996C526.092 57.1596 525.772 57.3996 525.292 57.7196C524.892 58.0396 524.532 58.1996 524.212 58.1996C523.812 58.1996 523.612 57.9996 523.612 57.5996C523.612 57.1996 524.172 56.3596 525.292 55.0796C526.412 53.7996 527.812 52.2796 529.492 50.5196C531.172 48.7596 532.892 46.9596 534.652 45.1196C536.492 43.2796 538.092 41.6396 539.452 40.1996C540.812 38.7596 541.732 37.7596 542.212 37.1996C543.012 36.1596 543.852 35.3196 544.732 34.6796C545.692 34.0396 546.812 33.7196 548.092 33.7196C548.812 33.7196 549.692 34.0796 550.732 34.7996C551.772 35.4396 552.292 36.1996 552.292 37.0796C552.292 37.3996 552.212 37.5996 552.052 37.6796C549.652 39.6796 547.292 42.0396 544.972 44.7596C542.732 47.4796 540.612 50.2796 538.612 53.1596C536.612 56.0396 534.772 58.7196 533.092 61.1996C535.012 59.0396 537.172 56.9196 539.572 54.8396C541.972 52.6796 544.292 50.6796 546.532 48.8396L555.052 41.8796C555.612 41.3996 556.172 40.8796 556.732 40.3196C557.372 39.7596 557.972 39.2796 558.532 38.8796C559.172 38.4796 559.852 38.3196 560.572 38.3996C561.372 38.3996 562.172 38.3996 562.972 38.3996C563.852 38.3996 564.692 38.6396 565.492 39.1196C566.372 39.5996 566.812 40.3596 566.812 41.3996C566.812 42.4396 566.532 43.2396 565.972 43.7996C565.492 44.2796 564.932 44.8396 564.292 45.4796C562.932 46.7596 561.252 48.4396 559.252 50.5196C557.332 52.5996 555.412 54.8396 553.492 57.2396C551.572 59.6396 549.972 62.0796 548.692 64.5596C547.412 66.9596 546.772 69.1996 546.772 71.2796C546.772 71.5196 546.772 71.7596 546.772 71.9996C546.772 72.2396 546.812 72.4796 546.892 72.7196C548.572 72.0796 550.412 71.0396 552.412 69.5996C554.492 68.0796 556.572 66.3996 558.652 64.5596C560.732 62.7196 562.652 60.8796 564.412 59.0396C566.252 57.1996 567.772 55.5596 568.972 54.1196C569.132 53.9596 569.292 53.7596 569.452 53.5196C569.692 53.2796 569.972 53.1596 570.292 53.1596C570.692 53.1596 570.892 53.4396 570.892 53.9996C570.892 54.3196 570.772 54.6796 570.532 55.0796C569.012 57.0796 566.972 59.4396 564.412 62.1596C561.852 64.8796 559.212 67.4796 556.492 69.9596C553.772 72.3596 551.332 74.1996 549.172 75.4796C548.612 75.7996 547.972 75.9596 547.252 75.9596ZM586.782 75.7196C586.062 75.7196 585.222 75.3996 584.262 74.7596C583.382 74.1996 582.582 73.5196 581.862 72.7196C581.142 71.8396 580.782 71.0396 580.782 70.3196C580.782 69.3596 581.102 68.1196 581.742 66.5996C582.382 65.0796 583.182 63.4796 584.142 61.7996C585.102 60.0396 586.022 58.4396 586.902 56.9996C587.862 55.5596 588.582 54.4396 589.062 53.6396C588.422 54.4396 587.422 55.6796 586.062 57.3596C584.702 58.9596 583.182 60.7596 581.502 62.7596C579.902 64.6796 578.222 66.5596 576.462 68.3996C574.782 70.1596 573.222 71.6396 571.782 72.8396C570.342 73.9596 569.182 74.5196 568.302 74.5196C567.742 74.5196 566.782 73.9996 565.422 72.9596C564.142 71.8396 563.502 70.1596 563.502 67.9196C563.502 66.0796 564.062 63.8396 565.182 61.1996C566.382 58.5596 567.942 55.8396 569.862 53.0396C571.782 50.1596 573.862 47.4796 576.102 44.9996C578.422 42.5196 580.702 40.5196 582.942 38.9996C585.262 37.4796 587.342 36.7196 589.182 36.7196C590.622 36.7196 592.022 37.1996 593.382 38.1596C594.742 39.0396 595.542 40.6796 595.782 43.0796C597.542 40.7596 599.302 38.5196 601.062 36.3596C602.902 34.1196 605.462 31.1996 608.742 27.5996C609.142 27.1196 609.902 26.2796 611.022 25.0796C612.142 23.7996 613.422 22.4396 614.862 20.9996C616.302 19.4796 617.702 18.1196 619.062 16.9196C620.502 15.6396 621.702 14.8396 622.662 14.5196C623.062 14.3596 623.862 14.5996 625.062 15.2396C626.262 15.7996 626.862 16.5196 626.862 17.3996C626.862 17.8796 626.662 18.3196 626.262 18.7196C625.782 19.2796 624.942 20.1196 623.742 21.2396C622.622 22.3596 621.342 23.5596 619.902 24.8396C618.462 26.1196 617.102 27.3196 615.822 28.4396C614.622 29.4796 613.782 30.3196 613.302 30.9596C606.582 38.0796 600.822 44.8796 596.022 51.3596C591.222 57.8396 588.022 63.5596 586.422 68.5196C586.022 69.7196 585.822 70.5596 585.822 71.0396C585.822 71.7596 586.022 72.1196 586.422 72.1196C586.742 72.1196 587.142 71.9596 587.622 71.6396C588.102 71.2396 588.662 70.7996 589.302 70.3196C590.582 69.2796 592.022 67.9996 593.622 66.4796C595.302 64.9596 596.942 63.3996 598.542 61.7996C600.142 60.1996 601.542 58.7596 602.742 57.4796C604.022 56.1196 604.902 55.1596 605.382 54.5996C605.542 54.4396 605.702 54.2796 605.862 54.1196C606.102 53.8796 606.342 53.7596 606.582 53.7596C607.142 53.7596 607.422 54.0396 607.422 54.5996C607.422 54.9196 606.782 55.8796 605.502 57.4796C604.222 58.9996 602.622 60.7996 600.702 62.8796C598.782 64.8796 596.822 66.8796 594.822 68.8796C592.822 70.7996 591.062 72.4396 589.542 73.7996C588.102 75.0796 587.182 75.7196 586.782 75.7196ZM569.502 70.3196C569.822 70.3196 570.182 70.1196 570.582 69.7196C574.662 66.1996 578.542 62.3596 582.222 58.1996C585.982 54.0396 589.502 49.7996 592.782 45.4796C592.382 44.6796 591.822 44.0396 591.102 43.5596C590.462 42.9996 589.702 42.7196 588.822 42.7196C587.222 42.7196 585.462 43.3996 583.542 44.7596C581.702 46.1196 579.982 47.6796 578.382 49.4396C576.782 51.1196 575.502 52.5196 574.542 53.6396C573.102 55.3996 571.702 57.6796 570.342 60.4796C569.062 63.1996 568.422 65.7196 568.422 68.0396C568.422 69.5596 568.782 70.3196 569.502 70.3196ZM624.422 75.7196C623.702 75.7196 622.862 75.3996 621.902 74.7596C621.022 74.1196 620.262 73.3996 619.622 72.5996C618.982 71.7196 618.662 70.9196 618.662 70.1996C618.662 68.9996 619.102 67.3996 619.982 65.3996C620.862 63.3196 621.862 61.2796 622.982 59.2796C624.182 57.2796 625.102 55.7996 625.742 54.8396C624.622 55.7996 623.182 57.3596 621.422 59.5196C619.742 61.5996 617.902 63.8396 615.902 66.2396C613.982 68.5596 612.102 70.5596 610.262 72.2396C608.502 73.9196 606.982 74.7596 605.702 74.7596C603.942 74.7596 602.502 74.1596 601.382 72.9596C600.342 71.6796 599.822 70.1596 599.822 68.3996C599.822 65.9996 600.502 63.4396 601.862 60.7196C603.222 57.9196 604.982 55.2396 607.142 52.6796C609.382 50.0396 611.782 47.6396 614.342 45.4796C616.982 43.3196 619.542 41.5996 622.022 40.3196C624.582 39.0396 626.862 38.3996 628.862 38.3996C631.022 38.3996 632.782 38.9196 634.142 39.9596C635.502 40.9196 636.182 42.3996 636.182 44.3996C636.182 44.7196 636.102 45.3196 635.942 46.1996C635.862 47.0796 635.582 47.5196 635.102 47.5196C634.862 47.5196 634.462 47.1596 633.902 46.4396C633.422 45.7196 632.742 44.9996 631.862 44.2796C630.982 43.5596 629.862 43.1996 628.502 43.1996C626.262 43.1996 623.902 44.0396 621.422 45.7196C619.022 47.3196 616.702 49.3996 614.462 51.9596C612.222 54.4396 610.262 56.9996 608.582 59.6396C606.902 62.2796 605.622 64.5596 604.742 66.4796C604.502 67.0396 604.262 67.6396 604.022 68.2796C603.862 68.9196 603.782 69.5596 603.782 70.1996C603.782 70.9196 603.982 71.2796 604.382 71.2796C604.782 71.2796 605.622 70.8396 606.902 69.9596C608.262 69.0796 609.222 68.4396 609.782 68.0396C612.582 66.0396 615.222 63.7596 617.702 61.1996C620.262 58.6396 622.542 55.9996 624.542 53.2796C625.182 52.3996 625.782 51.5196 626.342 50.6396C626.902 49.7596 627.462 48.9196 628.022 48.1196C628.422 47.5596 628.822 47.2796 629.222 47.2796C630.102 47.2796 630.942 47.8796 631.742 49.0796C632.622 50.2796 633.062 51.3196 633.062 52.1996C633.062 52.5996 632.982 52.8396 632.822 52.9196C632.742 52.9996 632.502 53.2396 632.102 53.6396C630.902 54.8396 629.702 56.5196 628.502 58.6796C627.382 60.8396 626.382 63.0396 625.502 65.2796C624.702 67.4396 624.102 69.2796 623.702 70.7996C623.622 71.0396 623.542 71.3596 623.462 71.7596C623.462 72.0796 623.662 72.1996 624.062 72.1196C624.862 71.8796 626.142 70.9996 627.902 69.4796C629.742 67.8796 631.702 66.0796 633.782 64.0796C635.942 61.9996 637.862 60.0796 639.542 58.3196C641.302 56.5596 642.462 55.3196 643.022 54.5996C643.182 54.4396 643.342 54.2796 643.502 54.1196C643.742 53.8796 643.982 53.7596 644.222 53.7596C644.782 53.7596 645.062 54.0396 645.062 54.5996C645.062 54.9196 644.422 55.8796 643.142 57.4796C641.862 58.9996 640.262 60.7996 638.342 62.8796C636.422 64.8796 634.462 66.8796 632.462 68.8796C630.462 70.7996 628.702 72.4396 627.182 73.7996C625.742 75.0796 624.822 75.7196 624.422 75.7196Z" fill="#354C79"/>
</svg>
